<?xml version="1.0" encoding="UTF-8" standalone="no"?>
<!DOCTYPE svg PUBLIC "-//W3C//DTD SVG 1.1//EN" "http://www.w3.org/Graphics/SVG/1.1/DTD/svg11.dtd">
<svg width="128" height="128" viewBox="0 0 128 128" version="1.1" xmlns="http://www.w3.org/2000/svg" xmlns:xlink="http://www.w3.org/1999/xlink" xml:space="preserve" xmlns:serif="http://www.serif.com/" style="fill-rule:evenodd;clip-rule:evenodd;stroke-linejoin:round;stroke-miterlimit:2;">
    <path id="path18459" d="M28.93,111.74C28.93,111.74 26.02,107.02 28.93,103.13L97.65,101.38C97.65,101.38 103.08,104.49 99.27,111.74C96.99,116.06 83.53,119.12 64.1,119.12C44.67,119.12 30.76,115.03 28.93,111.74Z" style="fill:rgb(247,140,4);fill-rule:nonzero;"/>
    <path id="path18461" d="M28.83,103.12C28.83,101.51 38.94,93.15 38.94,93.15C45.3,90.02 83.19,90.8 89.06,93.15C89.06,93.15 99.17,101.21 99.17,103.12C99.17,106.33 83.31,110.38 63.89,110.38C44.47,110.38 28.83,106.34 28.83,103.12Z" style="fill:rgb(255,204,128);fill-rule:nonzero;"/>
    <path id="path18468" d="M38.94,29.23L38.94,91.46C38.94,92.61 39.61,93.66 40.67,94.13C43.42,95.36 49.99,97.3 64,97.3C78.01,97.3 84.58,95.36 87.33,94.13C88.38,93.66 89.06,92.61 89.06,91.46L89.06,29.23L38.94,29.23Z" style="fill:rgb(98,192,234);fill-rule:nonzero;"/>
    <path id="path18470" d="M38.94,31.02L38.94,28.93L89.06,31.02C89.06,34.48 77.84,37.29 64,37.29C50.16,37.29 38.94,34.48 38.94,31.02Z" style="fill:rgb(29,140,200);fill-rule:nonzero;"/>
    <g id="g18481">
        <path id="path18479" d="M73.81,125C66.11,125 59.07,123.99 52.94,121.97C42.51,118.54 35.29,112.36 32.62,104.57C28.34,92.09 37.71,69 42.75,56.6C44.04,53.43 45.05,50.93 45.46,49.56C45.69,48.78 46.51,48.34 47.28,48.57C48.06,48.8 48.5,49.62 48.27,50.39C47.82,51.9 46.78,54.46 45.47,57.7C40.58,69.75 31.48,92.17 35.41,103.62C39.76,116.3 59.7,127.36 94.1,120.43C94.89,120.28 95.9,120.28 96.24,121.01C96.62,121.82 95.89,122.58 95.09,122.74C87.6,124.25 80.46,125 73.81,125Z" style="fill:rgb(98,192,234);fill-rule:nonzero;"/>
    </g>
    <path id="path18483" d="M38.94,29.23C38.94,29.23 33.12,26.23 28.86,21.83L98.27,22.75C95.59,26.72 89.05,30.86 89.05,30.86C89.05,30.86 84.5,33.11 63.56,33.11C42.62,33.11 38.94,29.23 38.94,29.23Z" style="fill:rgb(230,81,0);fill-rule:nonzero;"/>
    <path id="path18485" d="M28.86,21.83C26.04,19.5 27.56,11.81 29.37,10.82C35.12,7.67 88.25,6.69 98.12,10.37C101.56,11.66 101.17,19.03 99.2,21.83C96.65,25.44 83.46,27.65 64.03,27.65C44.6,27.65 33.18,25.4 28.86,21.83Z" style="fill:rgb(247,140,4);fill-rule:nonzero;"/>
    <ellipse id="ellipse18487" cx="64" cy="12.02" rx="35.17" ry="7.02" style="fill:rgb(255,204,128);"/>
    <ellipse id="ellipse18489" cx="64" cy="10.78" rx="8.14" ry="2.47" style="fill:rgb(230,81,0);"/>
    <g id="g18558">
    </g>
    <g id="g18611">
    </g>
    <path id="path20767" d="M89.061,38.4C89.014,38.411 88.967,38.423 88.922,38.438C88.922,38.438 87.334,39.387 83.135,40.432C78.935,41.476 72.248,42.541 62.432,42.541C52.6,42.541 46.366,41.622 42.641,40.729C40.882,40.307 39.698,39.895 38.939,39.586L38.939,42.781C39.738,43.055 40.712,43.35 41.941,43.645C45.95,44.606 52.413,45.541 62.432,45.541C72.465,45.541 79.399,44.453 83.859,43.344C86.312,42.734 87.989,42.116 89.061,41.664L89.061,38.4ZM89.061,49.541C89.014,49.551 88.967,49.564 88.922,49.578C88.922,49.578 87.334,50.528 83.135,51.572C78.935,52.617 72.248,53.682 62.432,53.682C52.6,53.682 46.366,52.763 42.641,51.869C40.882,51.447 39.698,51.035 38.939,50.727L38.939,53.922C39.738,54.196 40.712,54.492 41.941,54.787C45.95,55.748 52.413,56.682 62.432,56.682C72.465,56.682 79.399,55.594 83.859,54.484C86.312,53.874 87.989,53.256 89.061,52.805L89.061,49.541ZM89.061,60.684C89.014,60.694 88.967,60.706 88.922,60.721C88.922,60.721 87.334,61.67 83.135,62.715C78.935,63.759 72.248,64.824 62.432,64.824C52.6,64.824 46.366,63.903 42.641,63.01C40.882,62.588 39.698,62.176 38.939,61.867L38.939,65.063C39.738,65.337 40.712,65.633 41.941,65.928C45.95,66.889 52.413,67.824 62.432,67.824C72.465,67.824 79.399,66.734 83.859,65.625C86.312,65.015 87.989,64.396 89.061,63.945L89.061,60.684ZM89.061,71.824C89.014,71.834 88.967,71.847 88.922,71.861C88.922,71.861 87.334,72.811 83.135,73.856C78.935,74.9 72.248,75.965 62.432,75.965C52.6,75.965 46.366,75.046 42.641,74.152C40.882,73.731 39.698,73.319 38.939,73.01L38.939,76.205C39.738,76.479 40.712,76.774 41.941,77.068C45.95,78.03 52.413,78.965 62.432,78.965C72.465,78.965 79.399,77.877 83.859,76.768C86.312,76.158 87.989,75.54 89.061,75.088L89.061,71.824ZM89.061,82.965C89.014,82.975 88.967,82.987 88.922,83.002C88.922,83.002 87.334,83.952 83.135,84.996C78.935,86.041 72.248,87.106 62.432,87.106C52.6,87.106 46.366,86.186 42.641,85.293C40.882,84.871 39.698,84.459 38.939,84.15L38.939,87.346C39.738,87.62 40.712,87.914 41.941,88.209C45.95,89.17 52.413,90.106 62.432,90.106C72.465,90.106 79.399,89.018 83.859,87.908C86.312,87.298 87.989,86.68 89.061,86.229L89.061,82.965Z" style="fill:rgb(29,140,200);fill-rule:nonzero;"/>
</svg>
