<?xml version="1.0" encoding="UTF-8" standalone="no"?>
<!DOCTYPE svg PUBLIC "-//W3C//DTD SVG 1.1//EN" "http://www.w3.org/Graphics/SVG/1.1/DTD/svg11.dtd">
<svg width="128" height="128" viewBox="0 0 128 128" version="1.1" xmlns="http://www.w3.org/2000/svg" xmlns:xlink="http://www.w3.org/1999/xlink" xml:space="preserve" xmlns:serif="http://www.serif.com/" style="fill-rule:evenodd;clip-rule:evenodd;stroke-linejoin:round;stroke-miterlimit:2;">
    <path id="path14661" d="M71.38,14.81C54.64,26.04 48.13,48.21 44.21,51.21C34.99,58.25 18.21,59.09 7.81,77.37C-1.46,93.67 5.63,107.9 12.84,114.44C20.05,120.98 34.48,115.95 34.48,115.95C34.48,115.95 58.13,102.2 58.13,100.86C58.13,99.52 74.4,75.52 81.95,67.81C89.5,60.1 119.02,45.67 119.02,45.67C119.02,45.67 124.32,22.87 123.05,19.34C121.53,15.14 98.38,-3.31 71.38,14.81Z" style="fill:rgb(255,204,128);fill-rule:nonzero;"/>
    <path id="path14663" d="M71.26,68C59.81,83.16 58.94,95.72 44.9,105.58C30.86,115.44 12.85,114.43 12.85,114.43C12.85,114.43 22.54,124.91 40.96,120.61C61.54,115.8 67.79,102.25 74.84,88.7C77.92,82.79 78.54,80.2 80.01,78.72C81.49,77.24 99.35,70.1 106.99,64.92C114.63,59.74 121.94,50.09 123.62,39.17C125.59,26.36 123.03,19.33 123.03,19.33C123.03,19.33 122.3,36.11 111.92,45.94C100.22,57.04 78.36,58.62 71.26,68Z" style="fill:rgb(242,141,94);fill-rule:nonzero;"/>
    <path id="path14671" d="M15.7,106.14C16.36,108.16 18.97,107.87 20.74,107.32C23.64,106.42 24.75,104.64 24.38,103.15C24.01,101.66 21.51,101.13 19.06,102.17C17.49,102.84 15.05,104.14 15.7,106.14Z" style="fill:rgb(161,134,127);fill-rule:nonzero;"/>
    <path id="path14673" d="M29.18,101.76C30.51,103.51 32.79,103.14 36.28,100.46C38.99,98.38 40.06,95.57 38.86,94.12C37.66,92.67 36.32,93.83 33.4,96C30.69,98.01 28.08,100.32 29.18,101.76Z" style="fill:rgb(161,134,127);fill-rule:nonzero;"/>
    <path id="path14675" d="M31.96,89.73C33.1,91.5 35.78,90.81 38.52,88.61C41.07,86.56 42.09,84.47 40.53,82.79C39.04,81.18 36.46,83.48 35.09,84.56C33.42,85.88 30.6,87.62 31.96,89.73Z" style="fill:rgb(161,134,127);fill-rule:nonzero;"/>
    <path id="path14677" d="M45.01,87.15C42.57,89.46 41.03,91.57 42.92,93.19C44.81,94.81 47.62,92.12 48.78,91.02C49.94,89.91 52.48,87.19 50.79,85.33C49.11,83.48 46.17,86.05 45.01,87.15Z" style="fill:rgb(161,134,127);fill-rule:nonzero;"/>
    <path id="path14679" d="M52.41,68.89C50.8,70.87 48.41,73.32 49.55,74.9C50.74,76.54 53.68,75.96 56.24,72.68C57.85,70.61 58.41,67.7 57.02,66.5C55.64,65.3 53.83,67.15 52.41,68.89Z" style="fill:rgb(161,134,127);fill-rule:nonzero;"/>
    <path id="path14681" d="M69.7,56.26C70.69,58.54 74.21,57.36 76.81,55.84C79.41,54.31 81.52,52.3 80.61,50.52C79.78,48.89 76.87,48.99 73.82,50.81C70.76,52.62 68.85,54.31 69.7,56.26Z" style="fill:rgb(161,134,127);fill-rule:nonzero;"/>
    <path id="path14683" d="M90.83,47.92C91.9,49.77 94.42,49.14 97.26,47.02C100.05,44.94 101.31,42.96 100.05,41.17C98.78,39.38 96.53,40.98 93.95,42.83C91.44,44.61 89.79,46.14 90.83,47.92Z" style="fill:rgb(161,134,127);fill-rule:nonzero;"/>
    <path id="path14685" d="M103.52,41.2C104.96,42.56 107.19,41.31 109.4,38.97C111.72,36.52 112.29,34.57 111.18,33.37C110.08,32.17 108.08,32.97 105.48,35.7C103.07,38.23 102.28,40.03 103.52,41.2Z" style="fill:rgb(161,134,127);fill-rule:nonzero;"/>
    <path id="path14687" d="M103.99,25.02C101.96,27.63 99.75,29.68 101.66,31.36C103.09,32.62 105.91,31.04 107.86,28.45C109.61,26.12 110.12,22.71 108.48,21.99C106.84,21.28 105.87,22.61 103.99,25.02Z" style="fill:rgb(161,134,127);fill-rule:nonzero;"/>
    <path id="path14689" d="M113.94,24.63C113.16,27.39 111.53,29.08 113.14,30.54C115.04,32.28 117.68,30.01 118.62,25.9C119.48,22.11 118.75,20.32 116.88,20.39C115.01,20.45 114.58,22.39 113.94,24.63Z" style="fill:rgb(161,134,127);fill-rule:nonzero;"/>
</svg>
